<svg xmlns="http://www.w3.org/2000/svg" width="245" height="230"><path d="M0 0h248v230H0z" fill="#0D0E0F"/><path d="M72.53 45.741c1.09-.01 2.17-.01 3.29-.02 1.17 0 2.34.01 3.54.01h3.69c2.58 0 5.16 0 7.75.01 3.89.01 7.79 0 11.69-.01 45.1-.03 45.1-.03 57.87 12.46 6.99 7.69 10.32 15.88 9.92 26.43-.84 7.13-4.23 13.31-9.28 18.38-2.88 1.94-5.84 3.54-9 5 .87 2.33.87 2.33 3.84 2.97l3.66 1.09c10.47 3.46 16.01 10.36 21.41 19.68 3.53 7.3 3.18 17.19 1.28 24.95-2.82 7.29-10.77 14.14-17.19 18.31-2.16.93-4.35 1.77-6.56 2.56-1.14.42-2.27.83-3.44 1.26-10.67 3.35-21.31 3.48-32.38 3.44-1.65.01-3.31.01-4.97.01-3.45 0-6.91 0-10.36-.01-4.43-.01-8.85-.01-13.28.01H78.87c-2.27.01-4.55 0-6.82-.01-1.29 0-2.58-.01-3.92-.01-3.13-.25-3.13-.25-6.13-2.25.4-4.36 2.07-6.66 4.84-9.86 3.56-6.57 2.31-15.98 2.28-23.2v-2.01c-.02-4.92-.06-9.83-.1-14.75l-.06-10.76q-.045-9.51-.15-19.02c-.03-3.58-.07-7.17-.08-10.75-.02-4.08-.07-8.17-.12-12.25v-3.73c-.15-8.65-1.81-13.47-6.61-20.67-.13-2.69-.13-2.69 0-5 3.66-1.67 6.52-2.25 10.53-2.26" fill="#FAFBFC"/><path d="M124.813 118.785a50 50 0 0 1 6.19 3.21c.61.33 1.22.66 1.85.99 6.71 4.06 11.46 11.68 13.58 19.14 1.07 7.36 1.46 13.23-2.43 19.87-6.02 6.18-10.12 7.31-18.57 7.44-6.85.04-12.23-.13-17.97-4.24-3.81-5.72-3.75-13.29-3.66-19.95.01-.79.01-1.57.01-2.38.01-2.48.04-4.95.06-7.43l.03-5.08c.02-4.12.06-8.24.1-12.36 5.33-2.66 15.16-.79 20.81.79m4.077-57.09c5.31 3.29 8.17 9.09 10.55 14.68 1 6.49 2.07 13.61-1.13 19.62-3.23 4.2-6.04 7.05-11.31 8-14.18.99-14.18.99-19.38-1.62-3.7-3.35-3.52-6.42-3.77-11.26-.02-3.2-.04-6.41-.04-9.62-.01-1.11-.02-2.23-.04-3.37-.01-10.55-.01-10.55 2.23-15.13 6.43-4.82 15.64-4 22.89-1.3" fill="#0D0E0F"/></svg>